<svg xmlns="http://www.w3.org/2000/svg" viewBox="0 0 202.71 202.71"><defs><style>.cls-1{fill:#231f20;}.cls-2{fill:#fff;}</style></defs><title>loader</title><g id="Layer_2" data-name="Layer 2"><g id="Layer_1-2" data-name="Layer 1"><rect class="cls-1" width="202.71" height="202.71"/><path class="cls-2" d="M98.48,52.37H94.8a17.58,17.58,0,0,0-6.89-11.69A21.51,21.51,0,0,0,74.5,36.33q-11.35,0-18.2,8.27-6.52,7.86-6.52,19.8T56.3,84.19q6.84,8.28,18.2,8.27a19.75,19.75,0,0,0,14.79-6.6A22.7,22.7,0,0,0,95.8,71h3.68a27.64,27.64,0,0,1-8.06,17.66,23.24,23.24,0,0,1-16.92,7q-13,0-20.88-9.11-7.51-8.59-7.51-22.13t7.51-22.14q7.86-9.09,20.88-9.1,13.29,0,19.88,9.27A21.21,21.21,0,0,1,98.48,52.37Z"/><path class="cls-2" d="M107.16,94.22V34.58h4.61l37.82,54.71V34.58h3.68V94.22h-4.36L110.84,39.09V94.22Z"/><path class="cls-2" d="M54.88,105.58,75.34,162h.17l20.63-56.46h3.67l-22.3,59.63H73.25L51,105.58Z"/><path class="cls-2" d="M150.68,122.61H147q-.33-7.42-5.47-11.36t-13.65-3.92a20.37,20.37,0,0,0-10.7,2.67,10.9,10.9,0,0,0-5.67,10q0,8,10.52,11,9.76,2.43,19.63,4.85,10.51,4,10.52,13.94a14.64,14.64,0,0,1-7.1,13,24.77,24.77,0,0,1-13.86,3.76q-11.37,0-17.88-4.84-7.35-5.43-7.26-16.29h3.67q-.5,9.19,6,13.87,5.76,4.08,15.45,4.09a21.32,21.32,0,0,0,11.36-2.93,11.83,11.83,0,0,0,5.93-10.69q0-8.34-10.53-11.61l-19.63-4.84q-10.51-3.76-10.52-13.37a13.71,13.71,0,0,1,6.52-12.19,23.82,23.82,0,0,1,13.53-3.67q9.93,0,15.87,4.34Q150.26,113.26,150.68,122.61Z"/></g></g></svg>