<svg id="color-read" enable-background="new 0 0 300 300" height="512" viewBox="0 0 300 300" width="512" xmlns="http://www.w3.org/2000/svg"><g><path d="m243.454 194.264c.781.781 1.805 1.172 2.828 1.172s2.047-.391 2.828-1.172l2.828-2.828 2.828 2.828c.781.781 1.805 1.172 2.828 1.172s2.047-.391 2.828-1.172c1.562-1.562 1.562-4.094 0-5.656l-2.828-2.828 2.828-2.828c1.562-1.562 1.562-4.094 0-5.656s-4.094-1.562-5.656 0l-2.828 2.828-2.828-2.828c-1.562-1.562-4.094-1.562-5.656 0s-1.562 4.094 0 5.656l2.828 2.828-2.828 2.828c-1.563 1.562-1.563 4.094 0 5.656z"/><circle cx="251.938" cy="129.78" r="4"/><path d="m258.932 234.147-68.992-68.992c22.054-32.656 18.678-77.488-10.203-106.369-32.75-32.754-86.043-32.754-118.793 0-32.752 32.752-32.752 86.041 0 118.793 11.83 11.83 26.675 19.714 42.994 22.947v1.254c0 2.209 1.791 4 4 4h24c2.209 0 4-1.791 4-4v-1.107c11.335-2.13 21.94-6.512 31.369-12.897l68.999 68.999c3.021 3.023 7.041 4.688 11.314 4.688s8.291-1.664 11.312-4.688c3.023-3.021 4.688-7.039 4.688-11.312s-1.664-8.295-4.688-11.316zm-67.882-33.941 11.314-11.314 22.629 22.629-11.314 11.314zm-79.112-42.426h16v16h-16zm-24-24h16v16h-16zm24 0h16v16h-16zm0-24h16v16h-16zm24 64v-16h16v16zm16-24h-16v-16h16zm-24-48h-16v-16h16zm-24 24h-16v-16h16zm-16 32h16v16h-16zm24 40v-16h16v16zm24-13.459c2.857-.672 5.681-1.505 8.428-2.541h11.572c2.209 0 4-1.791 4-4v-4.335c2.993-2.148 5.853-4.549 8.484-7.181 12.844-12.842 19.918-29.918 19.918-48.082s-7.074-35.24-19.918-48.084c-6.625-6.627-14.367-11.721-23.008-15.141-2.07-.82-4.379.195-5.191 2.246-.814 2.055.193 4.379 2.246 5.191 7.619 3.016 14.447 7.512 20.297 13.359 11.332 11.334 17.574 26.4 17.574 42.428s-6.242 31.094-17.574 42.426c-.906.906-1.868 1.75-2.828 2.595v-33.422c0-2.209-1.791-4-4-4h-20v-44c0-2.209-1.791-4-4-4h-24c-2.209 0-4 1.791-4 4v20h-20c-2.209 0-4 1.791-4 4v56.706c-.681-.621-1.375-1.229-2.025-1.878-23.393-23.393-23.393-61.459 0-84.854 12.711-12.707 30.289-19.008 48.182-17.297 2.189.188 4.152-1.402 4.363-3.602.209-2.199-1.402-4.152-3.602-4.363-20.266-1.924-40.193 5.203-54.6 19.605-26.512 26.514-26.512 69.654 0 96.166 2.387 2.388 4.973 4.611 7.682 6.619v4.896c0 2.209 1.791 4 4 4h12.408c.068.03.112.087.182.113 2.413.899 4.902 1.616 7.41 2.237v8.215c-14.144-3.111-27.011-10.098-37.338-20.423-29.633-29.633-29.633-77.848 0-107.48s77.848-29.633 107.48 0 29.633 77.848 0 107.48c-10.541 10.541-23.682 17.582-38.143 20.595v-8.194zm43.799-6.742c1.91-1.91 3.684-3.903 5.371-5.944l11.6 11.6-11.314 11.314-11.608-11.608c2.047-1.696 4.049-3.461 5.951-5.362zm73.539 73.539c-3.023 3.023-8.291 3.023-11.314 0l-22.627-22.627 11.314-11.314 22.627 22.627c1.512 1.512 2.344 3.521 2.344 5.658s-.832 4.144-2.344 5.656z"/><path d="m83.938 205.78c-2.209 0-4 1.791-4 4v12c0 2.209 1.791 4 4 4s4-1.791 4-4v-12c0-2.209-1.791-4-4-4z"/><path d="m131.938 229.78c-2.209 0-4 1.791-4 4v12c0 2.209 1.791 4 4 4s4-1.791 4-4v-12c0-2.209-1.791-4-4-4z"/><path d="m155.938 201.78c-2.209 0-4 1.791-4 4v32c0 2.209 1.791 4 4 4s4-1.791 4-4v-32c0-2.209-1.791-4-4-4z"/><path d="m107.938 213.78c-2.209 0-4 1.791-4 4v24c0 2.209 1.791 4 4 4s4-1.791 4-4v-24c0-2.209-1.791-4-4-4z"/><path d="m107.938 249.78c-2.209 0-4 1.791-4 4v8c0 2.209 1.791 4 4 4s4-1.791 4-4v-8c0-2.209-1.791-4-4-4z"/></g></svg>