<svg id="pen-drag" enable-background="new 0 0 300 300" height="512" viewBox="0 0 300 300" width="512" xmlns="http://www.w3.org/2000/svg"><g><path d="m150 170c-8.822 0-16 7.178-16 16s7.178 16 16 16 16-7.178 16-16-7.178-16-16-16zm0 24c-4.412 0-8-3.588-8-8s3.588-8 8-8 8 3.588 8 8-3.588 8-8 8z"/><path d="m94.484 205.516c-1.562-1.562-4.094-1.562-5.656 0l-2.828 2.828-2.828-2.828c-1.562-1.562-4.094-1.562-5.656 0s-1.562 4.094 0 5.656l2.828 2.828-2.828 2.828c-1.562 1.562-1.562 4.094 0 5.656.781.781 1.805 1.172 2.828 1.172s2.047-.391 2.828-1.172l2.828-2.828 2.828 2.828c.781.781 1.805 1.172 2.828 1.172s2.047-.391 2.828-1.172c1.562-1.562 1.562-4.094 0-5.656l-2.828-2.828 2.828-2.828c1.563-1.563 1.563-4.094 0-5.656z"/><circle cx="238" cy="210" r="4"/><path d="m254 34c-7.433 0-13.643 5.119-15.432 12h-72.568v-4.73c0-4.008-3.262-7.27-7.27-7.27h-17.46c-4.008 0-7.27 3.262-7.27 7.27v4.73h-72.568c-1.789-6.881-7.999-12-15.432-12-8.822 0-16 7.178-16 16s7.178 16 16 16c7.433 0 13.643-5.119 15.432-12h53.79c-22.188 10.742-38.646 31.402-43.615 56.242-7.683 1.166-13.607 7.755-13.607 15.758 0 7.994 5.912 14.579 13.583 15.756 4.471 22.382 18.252 41.756 38.103 53.358.005.003.01.003.015.006l8.299 23.564v11.998c-4.636 1.589-8 5.944-8 11.111v20.207c0 2.209 1.791 4 4 4s4-1.791 4-4v-20.207c0-2.092 1.701-3.793 3.793-3.793h.207 56 .207c2.092 0 3.793 1.701 3.793 3.793v20.207c0 2.209 1.791 4 4 4s4-1.791 4-4v-20.207c0-5.168-3.364-9.522-8-11.111v-11.998l8.327-23.645c.135-.061.277-.094.407-.172 19.577-11.606 33.222-30.927 37.661-53.109 7.682-1.167 13.605-7.756 13.605-15.758 0-8.006-5.929-14.596-13.616-15.759-4.968-24.855-21.359-45.502-43.58-56.241h53.763c1.789 6.881 7.999 12 15.432 12 8.822 0 16-7.178 16-16s-7.177-16-15.999-16zm-112 8h16v16h-16zm-96 16c-4.412 0-8-3.588-8-8s3.588-8 8-8 8 3.588 8 8-3.588 8-8 8zm20 68c0-4.412 3.588-8 8-8s8 3.588 8 8-3.588 8-8 8-8-3.588-8-8zm60 104v-8h48v8zm49.167-16h-50.335l-12.364-35.105 13.18-18.232c8.92-12.341 15.73-25.775 20.352-40.089v33.426c0 2.209 1.791 4 4 4s4-1.791 4-4v-33.354c4.583 14.078 11.284 27.307 20.037 39.479l13.496 18.764zm58.833-88c0 4.412-3.588 8-8 8s-8-3.588-8-8 3.588-8 8-8 8 3.588 8 8zm-13.604-14.933c-6.056 2.282-10.396 8.089-10.396 14.933 0 6.836 4.33 12.64 10.376 14.927-3.457 16.38-12.529 30.932-25.539 41.309l.937-2.66c.434-1.232.238-2.602-.525-3.664l-14.715-20.459c-11.402-15.852-19.137-33.596-22.988-52.736l-3.623-18.004c-.375-1.865-2.014-3.209-3.916-3.211-1.734.104-3.545 1.334-3.926 3.199l-3.818 18.678c-3.902 19.1-11.674 36.795-23.098 52.596l-14.406 19.93c-.768 1.062-.967 2.436-.531 3.672l.935 2.655c-13.027-10.378-22.057-24.902-25.517-41.311 6.034-2.293 10.354-8.092 10.354-14.921 0-6.844-4.34-12.651-10.396-14.933 5.788-27.408 27.14-49.042 54.396-55.232v2.895c0 4.008 3.262 7.27 7.27 7.27h17.461c4.008 0 7.27-3.262 7.27-7.27v-2.892c27.346 6.203 48.616 27.81 54.395 55.229zm33.604-53.067c-4.412 0-8-3.588-8-8s3.588-8 8-8 8 3.588 8 8-3.588 8-8 8z"/></g></svg>