<svg id="rocket-delivery" enable-background="new 0 0 300 300" height="512" viewBox="0 0 300 300" width="512" xmlns="http://www.w3.org/2000/svg"><g><path d="m237.775 163.881c-.732-1.17-2.014-1.881-3.393-1.881h-56-112c-1.379 0-2.66.711-3.393 1.881l-20 32c-.77 1.232-.811 2.787-.105 4.059s2.043 2.06 3.498 2.06h20v68c0 2.209 1.791 4 4 4h164c2.209 0 4-1.791 4-4v-68h16c1.455 0 2.793-.789 3.498-2.061s.664-2.826-.105-4.059zm-169.176 6.119h102.566l-15 24h-102.566zm5.783 32h84c1.379 0 2.66-.711 3.393-1.881l12.607-20.172v86.053h-100zm156 64h-48v-86.053l12.607 20.172c.732 1.17 2.014 1.881 3.393 1.881h32zm-29.783-72-15-24h46.566l15 24z"/><path d="m154.382 238h-64c-2.209 0-4 1.791-4 4v12c0 2.209 1.791 4 4 4h64c2.209 0 4-1.791 4-4v-12c0-2.208-1.791-4-4-4zm-4 12h-56v-4h56z"/><path d="m218.382 50c2.209 0 4-1.791 4-4v-8c0-2.209-1.791-4-4-4s-4 1.791-4 4v8c0 2.209 1.791 4 4 4z"/><path d="m218.382 58c-2.209 0-4 1.791-4 4v8c0 2.209 1.791 4 4 4s4-1.791 4-4v-8c0-2.208-1.791-4-4-4z"/><path d="m202.382 58h8c2.209 0 4-1.791 4-4s-1.791-4-4-4h-8c-2.209 0-4 1.791-4 4s1.791 4 4 4z"/><path d="m226.382 58h8c2.209 0 4-1.791 4-4s-1.791-4-4-4h-8c-2.209 0-4 1.791-4 4s1.791 4 4 4z"/><path d="m62.382 52c0-7.719-6.281-14-14-14s-14 6.281-14 14 6.281 14 14 14 14-6.281 14-14zm-20 0c0-3.309 2.691-6 6-6s6 2.691 6 6-2.691 6-6 6-6-2.691-6-6z"/><path d="m53.065 117.948c0 2.362 1.915 4.276 4.276 4.276s4.276-1.915 4.276-4.276-1.915-4.277-4.276-4.277-4.276 1.915-4.276 4.277z"/><path d="m101.342 42.224c2.362 0 4.276-1.915 4.276-4.276s-1.915-4.277-4.276-4.277-4.276 1.915-4.276 4.277 1.914 4.276 4.276 4.276z"/><path d="m237.065 93.948c0 2.362 1.915 4.276 4.276 4.276s4.276-1.915 4.276-4.276-1.915-4.277-4.276-4.277-4.276 1.915-4.276 4.277z"/><path d="m261.342 53.671c-2.362 0-4.276 1.915-4.276 4.277s1.915 4.276 4.276 4.276 4.276-1.915 4.276-4.276-1.915-4.277-4.276-4.277z"/><path d="m100.519 97.821c-1.428.75-2.264 2.287-2.121 3.895l4.334 48.641c.156 1.742 1.424 3.18 3.133 3.553.283.062.57.092.852.092 1.416 0 2.754-.752 3.475-2.02l8.037-14.096 2.536-1.186c.926 4.903 2.038 9.757 3.519 14.495.521 1.67 2.068 2.807 3.818 2.807h52.562c1.75 0 3.297-1.137 3.818-2.807 1.48-4.738 2.593-9.592 3.519-14.495l2.536 1.186 8.037 14.096c.721 1.268 2.059 2.02 3.475 2.02.281 0 .568-.029.852-.092 1.709-.373 2.977-1.811 3.133-3.553l4.334-48.641c.143-1.607-.693-3.145-2.121-3.895l-20.143-10.598c-4.427-23.686-15.167-44.823-30.937-60.095-1.551-1.504-4.016-1.504-5.566 0-15.77 15.273-26.51 36.409-30.938 60.095zm13.168 33.357c-.748.35-1.371.924-1.779 1.643l-2.34 4.104-2.965-33.266 12.636-6.648c-.545 4.932-.856 9.94-.856 15.017 0 5.543.421 11.021 1.091 16.444zm88.474-27.519-2.965 33.266-2.34-4.104c-.408-.719-1.031-1.293-1.779-1.643l-5.786-2.707c.67-5.423 1.091-10.901 1.091-16.443 0-5.078-.311-10.085-.856-15.018zm-47.779-67.963c17.842 18.924 28 46.492 28 76.332 0 11.643-1.58 23.057-4.697 33.973h-46.605c-3.117-10.916-4.697-22.33-4.697-33.973-.001-29.84 10.157-57.408 27.999-76.332z"/><path d="m154.382 126c11.027 0 20-8.973 20-20s-8.973-20-20-20-20 8.973-20 20 8.973 20 20 20zm0-32c6.617 0 12 5.383 12 12s-5.383 12-12 12-12-5.383-12-12 5.383-12 12-12z"/></g></svg>