<svg id="shape-chat" enable-background="new 0 0 300 300" height="512" viewBox="0 0 300 300" width="512" xmlns="http://www.w3.org/2000/svg"><g><path d="m52.484 179.516c-1.562-1.562-4.094-1.562-5.656 0l-2.828 2.828-2.828-2.828c-1.562-1.562-4.094-1.562-5.656 0s-1.562 4.094 0 5.656l2.828 2.828-2.828 2.828c-1.562 1.562-1.562 4.094 0 5.656.781.781 1.805 1.172 2.828 1.172s2.047-.391 2.828-1.172l2.828-2.828 2.828 2.828c.781.781 1.805 1.172 2.828 1.172s2.047-.391 2.828-1.172c1.562-1.562 1.562-4.094 0-5.656l-2.828-2.828 2.828-2.828c1.563-1.563 1.563-4.094 0-5.656z"/><circle cx="220" cy="52" r="4"/><path d="m248 220c-6.617 0-12 5.383-12 12s5.383 12 12 12 12-5.383 12-12-5.383-12-12-12zm0 16c-2.205 0-4-1.793-4-4s1.795-4 4-4 4 1.793 4 4-1.795 4-4 4z"/><path d="m149.504 174.074c-1.402-2.562-5.605-2.562-7.008 0l-22 40c-.682 1.238-.658 2.746.061 3.961.721 1.219 2.029 1.965 3.443 1.965h44c1.414 0 2.723-.746 3.443-1.965.719-1.215.742-2.723.061-3.961zm-18.738 37.926 15.234-27.699 15.234 27.699z"/><path d="m246.812 72h-89.625c-11.683 0-21.187 9.504-21.187 21.188v30.812h-57.715c-1.291 0-2.504.625-3.256 1.676l-7.029 9.844v-7.52c0-2.211-1.791-4-4-4h-10.812c-7.272 0-13.188-5.914-13.188-13.188v-57.624c0-7.274 5.916-13.188 13.188-13.188h89.625c7.271 0 13.187 5.914 13.187 13.188v9.211c0 2.211 1.791 4 4 4s4-1.789 4-4v-9.211c0-11.684-9.504-21.188-21.188-21.188h-89.624c-11.684 0-21.188 9.504-21.188 21.188v57.625c0 11.683 9.504 21.187 21.188 21.187h6.812v16c0 1.738 1.123 3.277 2.779 3.809.403.129.815.191 1.221.191 1.268 0 2.49-.605 3.256-1.676l13.088-18.324h55.656v16h-34.812c-11.684 0-21.188 9.504-21.188 21.188v57.625c0 11.683 9.504 21.187 21.188 21.187h6.812v16c0 1.738 1.123 3.277 2.779 3.809.402.129.814.191 1.221.191 1.268 0 2.49-.605 3.256-1.676l13.088-18.324h62.469c11.684 0 21.188-9.504 21.188-21.188v-54.812h34.812c11.684 0 21.188-9.504 21.188-21.188v-57.624c-.001-11.684-9.505-21.188-21.189-21.188zm-42.812 154.812c0 7.273-5.916 13.188-13.188 13.188h-64.527c-1.291 0-2.504.625-3.256 1.676l-7.029 9.844v-7.52c0-2.211-1.791-4-4-4h-10.812c-7.272 0-13.188-5.914-13.188-13.188v-57.625c0-7.273 5.916-13.187 13.188-13.187h35.531c2.33 9.169 10.585 16 20.469 16h6.812v16c0 1.738 1.123 3.277 2.779 3.809.402.129.814.191 1.221.191 1.268 0 2.49-.605 3.256-1.676l13.088-18.324h19.656zm56-76c0 7.273-5.916 13.188-13.188 13.188h-64.527c-1.291 0-2.504.625-3.256 1.676l-7.029 9.844v-7.52c0-2.211-1.791-4-4-4h-10.812c-7.271 0-13.188-5.914-13.188-13.188v-57.624c0-7.274 5.916-13.188 13.188-13.188h89.625c7.271 0 13.187 5.914 13.187 13.188z"/><path d="m202 96c-14.336 0-26 11.664-26 26s11.664 26 26 26 26-11.664 26-26-11.664-26-26-26zm0 44c-9.926 0-18-8.074-18-18s8.074-18 18-18 18 8.074 18 18-8.074 18-18 18z"/><path d="m91.359 57.527-17.83 17.832c-3.662 3.66-3.662 9.621 0 13.281l17.83 17.832c1.773 1.773 4.133 2.75 6.641 2.75s4.867-.977 6.641-2.75l17.83-17.832c3.662-3.66 3.662-9.621 0-13.281l-17.83-17.832c-3.547-3.547-9.735-3.547-13.282 0zm25.455 25.457-17.83 17.832c-.543.539-1.426.539-1.969 0l-17.83-17.832c-.543-.543-.543-1.426 0-1.969l17.83-17.832c.543-.539 1.426-.539 1.969 0l17.83 17.832c.543.544.543 1.426 0 1.969z"/></g></svg>