<svg id="sketch" enable-background="new 0 0 300 300" height="512" viewBox="0 0 300 300" width="512" xmlns="http://www.w3.org/2000/svg"><g><path d="m142.449 72.484c.781.781 1.805 1.172 2.828 1.172s2.047-.391 2.828-1.172l2.828-2.828 2.828 2.828c.781.781 1.805 1.172 2.828 1.172s2.047-.391 2.828-1.172c1.562-1.562 1.562-4.094 0-5.656l-2.827-2.828 2.828-2.828c1.562-1.562 1.562-4.094 0-5.656s-4.094-1.562-5.656 0l-2.828 2.828-2.828-2.828c-1.562-1.562-4.094-1.562-5.656 0s-1.562 4.094 0 5.656l2.827 2.828-2.828 2.828c-1.562 1.562-1.562 4.094 0 5.656z"/><circle cx="108.934" cy="70" r="4.529"/><path d="m66.934 60c6.617 0 12-5.383 12-12s-5.383-12-12-12-12 5.383-12 12 5.382 12 12 12zm0-16c2.207 0 4 1.793 4 4s-1.793 4-4 4-4-1.793-4-4 1.793-4 4-4z"/><path d="m265.066 54.988c0-3.742-1.457-7.258-4.102-9.898-5.285-5.285-14.504-5.289-19.797 0l-42.909 42.91h-143.324c-2.211 0-4 1.789-4 4v12h-4.234c-6.488 0-11.766 5.277-11.766 11.766v128.469c0 6.488 5.277 11.766 11.766 11.766h20.234v4c0 1.484.824 2.848 2.137 3.539 1.316.691 2.898.602 4.125-.242l11.738-8.047 11.738 8.047c.68.469 1.469.703 2.262.703.637 0 1.277-.152 1.863-.461 1.312-.691 2.137-2.055 2.137-3.539v-4h136.234c6.488 0 11.766-5.277 11.766-11.766v-128.47c0-6.488-5.277-11.766-11.766-11.766h-4.234v-11.999c0-.319-.111-.602-.181-.899l26.212-26.214c2.644-2.645 4.101-6.161 4.101-9.899zm-70.566 65.055-8.486-8.486 42.428-42.428 8.485 8.485zm-13.067-1.754 6.316 6.315-14.921 8.56zm52.665-54.817 2.828-2.828 8.485 8.484-2.828 2.829zm-95.164 32.528v132h-4.443c-8.88-2.707-19.46-4-25.979-4h-49.578v-128zm-72 140h-8v-4h8zm36-4h5.578c8.041 0 22.681 2.268 30.422 6.356v3.18c-9.522-3.759-22.771-5.536-30.422-5.536h-5.578zm44 6.232c6.776-4.067 14.478-6.232 22.422-6.232h57.578v4h-57.578c-7.829 0-15.455 1.781-22.422 5.147zm-100.235 9.768c-2.078 0-3.766-1.688-3.766-3.766v-128.469c0-2.078 1.688-3.766 3.766-3.766h4.234v128c0 2.211 1.789 4 4 4h12v4h-20.234zm40.496-.899c-1.359-.938-3.164-.938-4.523 0l-7.738 5.305v-20.406h20v20.406zm15.739-3.101h5.578c6.338 0 16.809 1.407 24.761 4h-30.339zm136.234-132c2.078 0 3.766 1.688 3.766 3.766v128.469c0 2.078-1.688 3.766-3.766 3.766h-88.041c5.691-2.622 11.883-4 18.228-4h61.578c2.211 0 4-1.789 4-4v-128.001zm-12.234 112h-57.578c-6.896 0-13.638 1.375-19.908 4h-2.513v-132h43.324l-11.898 11.898c-.246.246-.457.52-.633.82l-19.266 33.309c-.906 1.566-.648 3.547.629 4.828.77.773 1.797 1.176 2.832 1.176.684 0 1.367-.172 1.992-.531l33.402-19.16c.309-.176.594-.395.844-.645l28.773-28.775zm28.375-164.77-4.242 4.242-8.485-8.484 4.242-4.242c2.266-2.266 6.219-2.266 8.484 0 1.133 1.133 1.758 2.641 1.758 4.242s-.625 3.109-1.757 4.242z"/><path d="m182.293 153.527-17.832 17.832c-1.773 1.773-2.75 4.133-2.75 6.641s.977 4.867 2.75 6.641l17.832 17.832c1.773 1.773 4.133 2.75 6.641 2.75s4.867-.977 6.641-2.75l17.832-17.832c1.773-1.773 2.75-4.133 2.75-6.641s-.977-4.867-2.75-6.641l-17.832-17.832c-3.548-3.547-9.735-3.547-13.282 0zm25.457 25.457-17.832 17.832c-.547.539-1.422.539-1.969 0l-17.832-17.832c-.543-.543-.543-1.426 0-1.969l17.832-17.832c.273-.27.629-.406.984-.406s.711.137.984.406l17.832 17.832c.544.543.544 1.426.001 1.969z"/><path d="m74.934 200h44c1.414 0 2.723-.746 3.441-1.965.723-1.215.746-2.723.062-3.961l-12.937-23.521c10.325-3.557 17.433-13.253 17.433-24.553 0-14.336-11.664-26-26-26s-26 11.664-26 26c0 8.546 4.263 16.494 11.209 21.323l-14.712 26.751c-.684 1.238-.66 2.746.062 3.961.719 1.219 2.028 1.965 3.442 1.965zm8-54c0-9.926 8.074-18 18-18s18 8.074 18 18c0 8.296-5.553 15.278-13.402 17.336l-5.094-9.262c-1.406-2.562-5.602-2.562-7.008 0l-3.424 6.226c-4.412-3.378-7.072-8.666-7.072-14.3zm14 18.301 15.234 27.699h-30.469z"/></g></svg>