<svg id="tools-delivery" enable-background="new 0 0 300 300" height="512" viewBox="0 0 300 300" width="512" xmlns="http://www.w3.org/2000/svg"><g><path d="m83.342 131.524c-2.362 0-4.276 1.915-4.276 4.277s1.914 4.276 4.276 4.276c2.361 0 4.276-1.915 4.276-4.276s-1.915-4.277-4.276-4.277z"/><path d="m163.342 60.077c2.361 0 4.276-1.915 4.276-4.276s-1.915-4.277-4.276-4.277c-2.362 0-4.276 1.915-4.276 4.277s1.914 4.276 4.276 4.276z"/><path d="m259.342 143.524c-2.362 0-4.276 1.915-4.276 4.277s1.914 4.276 4.276 4.276c2.361 0 4.276-1.915 4.276-4.276s-1.915-4.277-4.276-4.277z"/><path d="m231.342 60.077c2.361 0 4.276-1.915 4.276-4.276s-1.915-4.277-4.276-4.277c-2.362 0-4.276 1.915-4.276 4.277s1.914 4.276 4.276 4.276z"/><path d="m67.342 56.077c2.361 0 4.276-1.915 4.276-4.276s-1.915-4.277-4.276-4.277c-2.362 0-4.276 1.915-4.276 4.277s1.914 4.276 4.276 4.276z"/><path d="m43.342 148.077c2.361 0 4.276-1.915 4.276-4.276s-1.915-4.277-4.276-4.277c-2.362 0-4.276 1.915-4.276 4.277s1.914 4.276 4.276 4.276z"/><path d="m231.773 157.734c-.73-1.17-2.012-1.881-3.391-1.881h-168c-1.379 0-2.66.711-3.391 1.881l-20 32c-.773 1.232-.812 2.787-.109 4.059.707 1.271 2.047 2.061 3.5 2.061h20v68c0 2.209 1.789 4 4 4h164c2.211 0 4-1.791 4-4v-68h16c1.453 0 2.793-.789 3.5-2.061.703-1.271.664-2.826-.109-4.059zm-169.172 6.119h102.562l-15 24h-102.562zm5.781 32h84c1.379 0 2.66-.711 3.391-1.881l12.609-20.175v86.056h-100zm156 64h-48v-86.056l12.609 20.175c.73 1.17 2.012 1.881 3.391 1.881h32zm-29.781-72-15-24h46.562l15 24z"/><path d="m148.382 231.853h-64c-2.211 0-4 1.791-4 4v12c0 2.209 1.789 4 4 4h64c2.211 0 4-1.791 4-4v-12c0-2.209-1.789-4-4-4zm-4 12h-56v-4h56z"/><path d="m58.902 112.383c.031 0 .062 0 .094-.002 4.234-.098 18.453-.822 23.625-5.99 2.902-2.902 4.504-6.762 4.504-10.865 0-.473-.095-.928-.137-1.394.347.025.686.103 1.035.103.242 0 .484-.008.727-.02 4.102-.205 7.941-2.148 10.543-5.336l34.223-41.943c2.949-3.617 2.684-8.83-.617-12.129-3.301-3.297-8.52-3.561-12.129-.613l-41.95 34.224c-3.18 2.598-5.121 6.439-5.328 10.539-.023.466.055.921.076 1.384-4.515-.532-9.216.864-12.674 4.32-5.168 5.172-5.895 19.395-5.992 23.629-.023 1.094.398 2.148 1.172 2.922.749.751 1.769 1.171 2.828 1.171zm29.445-26.159c-1.766.111-3.633-.58-4.957-1.908-1.324-1.326-2.004-3.086-1.91-4.957.055-1.101.401-2.12.95-3.028l8.944 8.947c-.907.546-1.926.891-3.027.946zm37.476-45.83c.195-.16.434-.24.668-.24.273 0 .543.105.75.311v.002c.387.385.418.992.074 1.412l-30.564 37.463-8.384-8.386zm-59.273 49.922c1.438-1.436 3.32-2.152 5.207-2.152s3.773.717 5.207 2.152c1.391 1.393 2.16 3.242 2.16 5.209s-.766 3.814-2.16 5.205v.002c-1.586 1.586-7.738 2.873-13.82 3.404.527-6.08 1.816-12.228 3.406-13.82z"/><path d="m194.686 95.421c0 .001 18.536 44.28 18.536 44.28.645 1.533 2.129 2.457 3.691 2.457.516 0 1.039-.102 1.543-.312l25.828-10.811c.98-.41 1.758-1.191 2.16-2.172.398-.982.395-2.084-.012-3.062l-30.891-73.795c-.855-2.039-3.199-2.99-5.234-2.145l-25.827 10.811c-.98.41-1.758 1.191-2.16 2.172-.398.982-.395 2.084.012 3.062zm15.02-36.636 27.801 66.416-18.449 7.721-3.089-7.379 3.69-1.545c2.035-.854 2.996-3.197 2.145-5.234-.855-2.037-3.188-2.996-5.238-2.145l-3.686 1.543-3.089-7.379 3.688-1.543c2.039-.852 3-3.195 2.148-5.234-.859-2.039-3.199-2.988-5.234-2.145l-3.691 1.544-3.09-7.382 3.688-1.543c2.039-.852 3-3.195 2.148-5.234-.855-2.039-3.199-2.996-5.234-2.145l-3.689 1.544-3.089-7.379 3.692-1.546c2.035-.854 2.996-3.197 2.145-5.234-.855-2.039-3.188-2.996-5.238-2.145l-3.688 1.544-3.089-7.38z"/><path d="m133.628 77.543c-1.594 2.576-2.086 5.619-1.387 8.566.605 2.549 2.074 4.724 4.119 6.305l-11.838 5.72c-1.188.576-2.02 1.703-2.215 3.012l-5.5 36.838c-.234 1.582.496 3.152 1.855 3.994l8.324 5.139c.645.398 1.375.596 2.102.596.809 0 1.613-.244 2.301-.729l30.469-21.424c1.113-.783 1.754-2.078 1.695-3.438l-.552-13.249c1.635.861 3.4 1.378 5.22 1.378.875 0 1.758-.102 2.629-.309 2.945-.697 5.445-2.5 7.035-5.076 3.285-5.316 1.629-12.314-3.688-15.602l-24.967-15.413c-5.325-3.283-12.321-1.629-15.602 3.692zm-.179 58.213 10.169-16.47c2.201-.216 4.284-1.393 5.536-3.42 2.128-3.448 1.059-7.968-2.389-10.096-3.447-2.128-7.968-1.059-10.096 2.389-1.442 2.337-1.386 5.151-.146 7.394l-10.919 17.686 4.305-28.821 14.4-6.958 10.48 6.47.682 16.344zm6.984-54.01c.633-1.021 1.727-1.584 2.848-1.584.598 0 1.203.162 1.746.498l24.969 15.412c1.562.967 2.051 3.027 1.086 4.592-.469.758-1.203 1.289-2.07 1.494s-1.758.061-2.52-.406v-.002l-24.969-15.414c-.762-.469-1.289-1.203-1.496-2.07s-.063-1.762.406-2.52z"/></g></svg>